<mxfile host="app.diagrams.net" modified="2023-07-09T14:39:41.705Z" agent="Mozilla/5.0 (Windows NT 10.0; Win64; x64) AppleWebKit/537.36 (KHTML, like Gecko) Chrome/114.0.0.0 Safari/537.36" version="21.6.1" etag="YDvsTzyklsHR_D-d484Z" type="github">
  <diagram name="페이지-1" id="KABqk1ZtoJIyNfSYuy-p">
    <mxGraphModel>
      <root>
        <mxCell id="0" />
        <mxCell id="1" parent="0" />
      </root>
    </mxGraphModel>
  </diagram>
</mxfile>
